<svg width="34" height="34" viewBox="0 0 34 34" fill="none" xmlns="http://www.w3.org/2000/svg">
<path d="M25.5 11.3333C25.5 9.079 24.6045 6.91699 23.0104 5.32293C21.4163 3.72887 19.2543 2.83334 17 2.83334C14.7457 2.83334 12.5837 3.72887 10.9896 5.32293C9.39553 6.91699 8.5 9.079 8.5 11.3333C8.5 21.25 4.25 24.0833 4.25 24.0833H29.75C29.75 24.0833 25.5 21.25 25.5 11.3333Z" stroke="#FCB200" stroke-width="2" stroke-linecap="round" stroke-linejoin="round"/>
<path d="M19.4509 29.75C19.2018 30.1794 18.8443 30.5358 18.4142 30.7835C17.9841 31.0312 17.4964 31.1616 17 31.1616C16.5037 31.1616 16.016 31.0312 15.5859 30.7835C15.1558 30.5358 14.7983 30.1794 14.5492 29.75" stroke="#FCB200" stroke-width="2" stroke-linecap="round" stroke-linejoin="round"/>
</svg>
