<svg width="34" height="34" viewBox="0 0 34 34" fill="none" xmlns="http://www.w3.org/2000/svg">
<path d="M20.825 8.925C20.5654 9.18981 20.42 9.54585 20.42 9.91666C20.42 10.2875 20.5654 10.6435 20.825 10.9083L23.0917 13.175C23.3565 13.4346 23.7125 13.58 24.0833 13.58C24.4542 13.58 24.8102 13.4346 25.075 13.175L30.4158 7.83416C31.1282 9.40835 31.3439 11.1622 31.0342 12.8621C30.7244 14.562 29.904 16.1271 28.6822 17.3489C27.4605 18.5707 25.8953 19.3911 24.1955 19.7008C22.4956 20.0105 20.7417 19.7948 19.1675 19.0825L9.37834 28.8717C8.81476 29.4352 8.05037 29.7519 7.25334 29.7519C6.45631 29.7519 5.69193 29.4352 5.12834 28.8717C4.56476 28.3081 4.24814 27.5437 4.24814 26.7467C4.24814 25.9496 4.56476 25.1852 5.12834 24.6217L14.9175 14.8325C14.2052 13.2583 13.9895 11.5044 14.2992 9.80454C14.6089 8.10467 15.4293 6.53955 16.6511 5.31777C17.8729 4.09599 19.438 3.27557 21.1379 2.96585C22.8378 2.65613 24.5917 2.87181 26.1658 3.58416L20.8392 8.91083L20.825 8.925Z" stroke="#FCB200" stroke-width="2" stroke-linecap="round" stroke-linejoin="round"/>
</svg>
