<svg width="17" height="17" viewBox="0 0 17 17" fill="none" xmlns="http://www.w3.org/2000/svg">
<g clip-path="url(#clip0_205_200)">
<path d="M10.6604 3.54166C11.3523 3.67665 11.9881 4.01501 12.4865 4.51345C12.985 5.01189 13.3233 5.64772 13.4583 6.33958M10.6604 0.708328C12.0978 0.868012 13.4382 1.5117 14.4615 2.53371C15.4848 3.55572 16.1302 4.89529 16.2917 6.33249M15.5833 11.985V14.11C15.5841 14.3073 15.5437 14.5025 15.4647 14.6833C15.3857 14.864 15.2697 15.0263 15.1244 15.1596C14.979 15.293 14.8074 15.3945 14.6205 15.4577C14.4336 15.5209 14.2356 15.5444 14.0392 15.5267C11.8595 15.2898 9.76578 14.545 7.92624 13.3521C6.21479 12.2645 4.76377 10.8135 3.67624 9.10208C2.47914 7.25418 1.73417 5.15028 1.50166 2.96083C1.48396 2.76495 1.50724 2.56753 1.57001 2.38115C1.63279 2.19476 1.73369 2.02348 1.86629 1.87823C1.99888 1.73297 2.16027 1.61691 2.34018 1.53745C2.52009 1.45798 2.71457 1.41685 2.91124 1.41666H5.03624C5.38 1.41328 5.71326 1.53501 5.97391 1.75916C6.23455 1.98332 6.4048 2.2946 6.45291 2.63499C6.5426 3.31504 6.70894 3.98276 6.94874 4.62541C7.04405 4.87894 7.06467 5.15448 7.00818 5.41937C6.95168 5.68426 6.82044 5.92741 6.62999 6.12L5.73041 7.01958C6.73876 8.79292 8.20707 10.2612 9.98041 11.2696L10.88 10.37C11.0726 10.1795 11.3157 10.0483 11.5806 9.99181C11.8455 9.93532 12.121 9.95594 12.3746 10.0512C13.0172 10.2911 13.6849 10.4574 14.365 10.5471C14.7091 10.5956 15.0233 10.7689 15.248 11.0341C15.4726 11.2992 15.5919 11.6376 15.5833 11.985Z" stroke="black" stroke-linecap="round" stroke-linejoin="round"/>
</g>
<defs>
<clipPath id="clip0_205_200">
<rect width="17" height="17" fill="white"/>
</clipPath>
</defs>
</svg>
