<svg width="41" height="41" viewBox="0 0 41 41" fill="none" xmlns="http://www.w3.org/2000/svg">
<g clip-path="url(#clip0_204_145)">
<path d="M20.5 25.625C23.3305 25.625 25.625 23.3305 25.625 20.5C25.625 17.6695 23.3305 15.375 20.5 15.375C17.6695 15.375 15.375 17.6695 15.375 20.5C15.375 23.3305 17.6695 25.625 20.5 25.625Z" stroke="white" stroke-width="2" stroke-linecap="round" stroke-linejoin="round"/>
<path d="M33.1417 25.625C32.9143 26.1403 32.8464 26.7118 32.9469 27.266C33.0474 27.8202 33.3116 28.3316 33.7054 28.7342L33.8079 28.8367C34.1256 29.154 34.3776 29.5308 34.5495 29.9456C34.7215 30.3604 34.81 30.805 34.81 31.254C34.81 31.703 34.7215 32.1476 34.5495 32.5623C34.3776 32.9771 34.1256 33.3539 33.8079 33.6713C33.4906 33.9889 33.1138 34.2409 32.699 34.4129C32.2842 34.5848 31.8396 34.6733 31.3906 34.6733C30.9416 34.6733 30.497 34.5848 30.0823 34.4129C29.6675 34.2409 29.2907 33.9889 28.9733 33.6713L28.8708 33.5688C28.4682 33.1749 27.9569 32.9107 27.4027 32.8103C26.8485 32.7098 26.2769 32.7776 25.7617 33.005C25.2564 33.2216 24.8255 33.5811 24.522 34.0395C24.2184 34.4978 24.0555 35.0349 24.0533 35.5846V35.875C24.0533 36.7812 23.6934 37.6502 23.0526 38.291C22.4119 38.9317 21.5428 39.2917 20.6367 39.2917C19.7305 39.2917 18.8615 38.9317 18.2207 38.291C17.58 37.6502 17.22 36.7812 17.22 35.875V35.7213C17.2068 35.1558 17.0238 34.6074 16.6947 34.1474C16.3657 33.6873 15.9058 33.3369 15.375 33.1417C14.8597 32.9143 14.2882 32.8464 13.734 32.9469C13.1798 33.0474 12.6685 33.3116 12.2658 33.7054L12.1633 33.8079C11.846 34.1256 11.4692 34.3776 11.0544 34.5495C10.6397 34.7215 10.1951 34.81 9.74605 34.81C9.29705 34.81 8.85245 34.7215 8.43767 34.5495C8.0229 34.3776 7.64608 34.1256 7.32876 33.8079C7.01109 33.4906 6.75908 33.1138 6.58714 32.699C6.4152 32.2842 6.3267 31.8396 6.3267 31.3906C6.3267 30.9416 6.4152 30.497 6.58714 30.0823C6.75908 29.6675 7.01109 29.2907 7.32876 28.9733L7.43126 28.8708C7.82509 28.4682 8.08929 27.9569 8.18977 27.4027C8.29025 26.8485 8.22241 26.2769 7.99501 25.7617C7.77846 25.2564 7.41888 24.8255 6.96055 24.522C6.50223 24.2184 5.96515 24.0555 5.41543 24.0533H5.12501C4.21885 24.0533 3.34981 23.6934 2.70906 23.0526C2.06831 22.4119 1.70834 21.5428 1.70834 20.6367C1.70834 19.7305 2.06831 18.8615 2.70906 18.2207C3.34981 17.58 4.21885 17.22 5.12501 17.22H5.27876C5.84421 17.2068 6.3926 17.0238 6.85265 16.6947C7.31269 16.3657 7.66311 15.9058 7.85834 15.375C8.08575 14.8597 8.15358 14.2882 8.0531 13.734C7.95262 13.1798 7.68843 12.6685 7.29459 12.2658L7.19209 12.1633C6.87442 11.846 6.62241 11.4692 6.45047 11.0544C6.27853 10.6397 6.19003 10.1951 6.19003 9.74605C6.19003 9.29705 6.27853 8.85245 6.45047 8.43767C6.62241 8.0229 6.87442 7.64608 7.19209 7.32876C7.50941 7.01109 7.88623 6.75908 8.30101 6.58714C8.71578 6.4152 9.16038 6.3267 9.60938 6.3267C10.0584 6.3267 10.503 6.4152 10.9178 6.58714C11.3325 6.75908 11.7094 7.01109 12.0267 7.32876L12.1292 7.43126C12.5318 7.82509 13.0432 8.08929 13.5973 8.18977C14.1515 8.29025 14.7231 8.22241 15.2383 7.99501H15.375C15.8803 7.77846 16.3112 7.41888 16.6147 6.96055C16.9183 6.50223 17.0812 5.96515 17.0833 5.41543V5.12501C17.0833 4.21885 17.4433 3.34981 18.0841 2.70906C18.7248 2.06831 19.5939 1.70834 20.5 1.70834C21.4062 1.70834 22.2752 2.06831 22.916 2.70906C23.5567 3.34981 23.9167 4.21885 23.9167 5.12501V5.27876C23.9189 5.82848 24.0818 6.36556 24.3853 6.82389C24.6888 7.28222 25.1197 7.64179 25.625 7.85834C26.1403 8.08575 26.7118 8.15358 27.266 8.0531C27.8202 7.95262 28.3316 7.68843 28.7342 7.29459L28.8367 7.19209C29.154 6.87442 29.5308 6.62241 29.9456 6.45047C30.3604 6.27853 30.805 6.19003 31.254 6.19003C31.703 6.19003 32.1476 6.27853 32.5623 6.45047C32.9771 6.62241 33.3539 6.87442 33.6713 7.19209C33.9889 7.50941 34.2409 7.88623 34.4129 8.30101C34.5848 8.71578 34.6733 9.16038 34.6733 9.60938C34.6733 10.0584 34.5848 10.503 34.4129 10.9178C34.2409 11.3325 33.9889 11.7094 33.6713 12.0267L33.5688 12.1292C33.1749 12.5318 32.9107 13.0432 32.8103 13.5973C32.7098 14.1515 32.7776 14.7231 33.005 15.2383V15.375C33.2216 15.8803 33.5811 16.3112 34.0395 16.6147C34.4978 16.9183 35.0349 17.0812 35.5846 17.0833H35.875C36.7812 17.0833 37.6502 17.4433 38.291 18.0841C38.9317 18.7248 39.2917 19.5939 39.2917 20.5C39.2917 21.4062 38.9317 22.2752 38.291 22.916C37.6502 23.5567 36.7812 23.9167 35.875 23.9167H35.7213C35.1715 23.9189 34.6345 24.0818 34.1761 24.3853C33.7178 24.6888 33.3582 25.1197 33.1417 25.625Z" stroke="white" stroke-width="2" stroke-linecap="round" stroke-linejoin="round"/>
</g>
<defs>
<clipPath id="clip0_204_145">
<rect width="41" height="41" fill="white"/>
</clipPath>
</defs>
</svg>
